<svg width="22" height="22" viewBox="0 0 22 22" fill="none" xmlns="http://www.w3.org/2000/svg">
<g clip-path="url(#clip0)">
<path d="M19.4697 1.4051C19.2892 1.14584 19.0461 0.956245 18.741 0.835973C18.5467 0.752794 18.343 0.711132 18.1301 0.711132V0.710938H3.58408C3.37129 0.710938 3.16784 0.7526 2.97348 0.835779C2.66819 0.955953 2.42521 1.14579 2.24481 1.40491C2.06445 1.66402 1.97412 1.95075 1.97412 2.26543V20.1564C1.97412 20.4712 2.06445 20.7578 2.24481 21.0172C2.42521 21.2762 2.66819 21.466 2.97348 21.5861C3.16765 21.6693 3.37129 21.7109 3.58408 21.7109C4.01913 21.7109 4.40294 21.5581 4.73614 21.253L10.8572 15.3677L16.9782 21.2532C17.3021 21.5488 17.6861 21.6969 18.1301 21.6969C18.3615 21.6969 18.5651 21.6601 18.7409 21.5861C19.046 21.466 19.2891 21.2762 19.4696 21.0168C19.65 20.7578 19.7401 20.4711 19.7401 20.1564V2.26562C19.7402 1.95094 19.6498 1.66421 19.4697 1.4051ZM17.9636 19.7259L12.0925 14.0908L10.8572 12.9112L9.62192 14.0908L3.75087 19.7259V2.48774H17.9636V19.7259Z" fill="#9E9EAF"/>
</g>
<defs>
<clipPath id="clip0">
<rect width="21" height="21" fill="white" transform="translate(0.357422 0.710938)"/>
</clipPath>
</defs>
</svg>
