<svg width="10" height="11" viewBox="0 0 10 11" fill="none" xmlns="http://www.w3.org/2000/svg">
<path d="M7.00172 4.72656C7.00172 4.48925 6.80935 4.29688 6.57203 4.29688H2.14624C1.90892 4.29688 1.71655 4.48925 1.71655 4.72656C1.71655 4.96388 1.90892 5.15625 2.14624 5.15625H6.57203C6.80935 5.15625 7.00172 4.96388 7.00172 4.72656Z" fill="#88889D"/>
<path d="M2.14624 6.01562C1.90892 6.01562 1.71655 6.208 1.71655 6.44531C1.71655 6.68263 1.90892 6.875 2.14624 6.875H4.83416C5.07148 6.875 5.26385 6.68263 5.26385 6.44531C5.26385 6.208 5.07148 6.01562 4.83416 6.01562H2.14624Z" fill="#88889D"/>
<path d="M3.15582 10.1406H1.71875C1.24489 10.1406 0.859375 9.75511 0.859375 9.28125V1.71875C0.859375 1.24489 1.24489 0.859375 1.71875 0.859375H7.00152C7.47538 0.859375 7.8609 1.24489 7.8609 1.71875V4.36133C7.8609 4.59864 8.05327 4.79102 8.29058 4.79102C8.5279 4.79102 8.72027 4.59864 8.72027 4.36133V1.71875C8.72027 0.771031 7.94924 0 7.00152 0H1.71875C0.771031 0 0 0.771031 0 1.71875V9.28125C0 10.229 0.771031 11 1.71875 11H3.15582C3.39313 11 3.58551 10.8076 3.58551 10.5703C3.58551 10.333 3.39313 10.1406 3.15582 10.1406Z" fill="#88889D"/>
<path d="M9.48134 6.22124C8.97874 5.71864 8.16095 5.71862 7.65867 6.2209L5.29962 8.57472C5.24952 8.62471 5.21257 8.68629 5.19199 8.75401L4.67823 10.4454C4.63268 10.5953 4.67236 10.7582 4.78181 10.8703C4.86379 10.9543 4.97517 11 5.0894 11C5.12762 11 5.1662 10.9948 5.20408 10.9843L6.93841 10.5039C7.00978 10.4842 7.07483 10.4463 7.12726 10.3939L9.48136 8.04427C9.98397 7.54167 9.98397 6.72389 9.48134 6.22124ZM6.60011 9.70591L5.72759 9.94761L5.98293 9.10695L7.57469 7.51872L8.18248 8.12651L6.60011 9.70591ZM8.874 7.43635L8.79075 7.51943L8.18306 6.91175L8.26603 6.82895C8.43357 6.66141 8.70616 6.66141 8.8737 6.82895C9.04123 6.99648 9.04123 7.26908 8.874 7.43635Z" fill="#88889D"/>
<path d="M6.57203 2.57812H2.14624C1.90892 2.57812 1.71655 2.7705 1.71655 3.00781C1.71655 3.24513 1.90892 3.4375 2.14624 3.4375H6.57203C6.80935 3.4375 7.00172 3.24513 7.00172 3.00781C7.00172 2.7705 6.80935 2.57812 6.57203 2.57812Z" fill="#88889D"/>
</svg>
