<svg width="36" height="36" viewBox="0 0 36 36" fill="none" xmlns="http://www.w3.org/2000/svg">
<g clip-path="url(#clip0)">
<path d="M33.0048 8.99893C31.3477 8.99893 30.0043 10.3423 30.0043 11.9994C30.005 12.3139 30.0556 12.6264 30.1543 12.9251L27.721 14.4718C26.1188 15.4926 24.0064 15.1543 22.8032 13.6842L20.4179 10.7663C20.7975 10.2552 21.0027 9.63563 21.003 8.999C21.003 7.34191 19.6596 5.99854 18.0025 5.99854C16.3454 5.99854 15.002 7.34191 15.002 8.999C15.0023 9.63563 15.2075 10.2552 15.5871 10.7663L13.2018 13.6842C11.9988 15.1534 9.88739 15.4917 8.28557 14.4718L5.85086 12.9251C5.94966 12.6264 6.00029 12.3139 6.00086 11.9994C6.00114 10.3423 4.65804 8.99872 3.00088 8.99844C1.34387 8.99815 0.000281341 10.3413 4.9917e-08 11.9984C-0.000281241 13.5539 1.18831 14.8518 2.73788 14.9878L4.51114 25.6244C4.57126 25.986 4.88406 26.2513 5.25072 26.2514H30.7545C31.1211 26.2513 31.4339 25.986 31.4941 25.6244L33.2673 14.9878C34.9178 14.8398 36.1358 13.3818 35.9878 11.7313C35.8492 10.1864 34.5559 9.00181 33.0048 8.99893Z" fill="#FFC107"/>
<path d="M18.0028 29.2515C25.0455 29.2515 30.7547 27.5724 30.7547 25.501C30.7547 23.4297 25.0455 21.7505 18.0028 21.7505C10.9602 21.7505 5.25098 23.4297 5.25098 25.501C5.25098 27.5724 10.9602 29.2515 18.0028 29.2515Z" fill="#FFA000"/>
<path d="M18.0025 30.0018C11.292 30.0018 4.50049 28.4566 4.50049 25.5011C4.50049 22.5457 11.292 21.0005 18.0025 21.0005C24.7129 21.0005 31.5044 22.5457 31.5044 25.5011C31.5044 28.4566 24.7129 30.0018 18.0025 30.0018ZM18.0025 22.5007C10.1233 22.5007 6.00068 24.4509 6.00068 25.5011C6.00068 26.5513 10.1233 28.5016 18.0025 28.5016C25.8816 28.5016 30.0042 26.5513 30.0042 25.5011C30.0042 24.4509 25.8816 22.5007 18.0025 22.5007Z" fill="#FFD54F"/>
</g>
<defs>
<clipPath id="clip0">
<rect width="36" height="36" fill="white"/>
</clipPath>
</defs>
</svg>
