<svg width="24" height="24" viewBox="0 0 24 24" fill="none" xmlns="http://www.w3.org/2000/svg">
<path d="M1.33325 6.33337C1.33325 5.78109 1.78097 5.33337 2.33325 5.33337H14.5555C15.1078 5.33337 15.5555 5.78109 15.5555 6.33337C15.5555 6.88566 15.1078 7.33337 14.5555 7.33337H2.33325C1.78097 7.33337 1.33325 6.88566 1.33325 6.33337Z" fill="#212523"/>
<path d="M1.33325 12.3334C1.33325 11.7811 1.78097 11.3334 2.33325 11.3334H21.6666C22.2189 11.3334 22.6666 11.7811 22.6666 12.3334C22.6666 12.8857 22.2189 13.3334 21.6666 13.3334H2.33325C1.78097 13.3334 1.33325 12.8857 1.33325 12.3334Z" fill="#212523"/>
<path d="M1.33325 18.3334C1.33325 17.7811 1.78097 17.3334 2.33325 17.3334H14.5555C15.1078 17.3334 15.5555 17.7811 15.5555 18.3334C15.5555 18.8857 15.1078 19.3334 14.5555 19.3334H2.33325C1.78097 19.3334 1.33325 18.8857 1.33325 18.3334Z" fill="#212523"/>
</svg>
