<svg width="370" height="291" viewBox="0 0 370 291" fill="none" xmlns="http://www.w3.org/2000/svg">
<mask id="mask0" mask-type="alpha" maskUnits="userSpaceOnUse" x="8" y="45" width="329" height="217">
<rect x="8.79854" y="45.7985" width="327.403" height="215.403" rx="23.2015" fill="white" stroke="#F7F7F7" stroke-width="1.59709"/>
</mask>
<g mask="url(#mask0)">
<rect x="8" y="45" width="329" height="217" rx="24" fill="#FF7648"/>
<path d="M369.345 88.1214C369.345 136.634 330.018 175.961 281.505 175.961C232.993 175.961 193.665 136.634 193.665 88.1214C193.665 39.6088 232.993 0.281624 281.505 0.281624C330.018 0.281624 369.345 39.6088 369.345 88.1214ZM228.801 88.1214C228.801 117.229 252.398 140.825 281.505 140.825C310.613 140.825 334.209 117.229 334.209 88.1214C334.209 59.0139 310.613 35.4175 281.505 35.4175C252.398 35.4175 228.801 59.0139 228.801 88.1214Z" fill="#FF9D66"/>
<path d="M308.656 225.471C308.656 236.055 300.075 244.636 289.491 244.636C278.906 244.636 270.326 236.055 270.326 225.471C270.326 214.886 278.906 206.306 289.491 206.306C300.075 206.306 308.656 214.886 308.656 225.471ZM277.992 225.471C277.992 231.822 283.14 236.97 289.491 236.97C295.841 236.97 300.99 231.822 300.99 225.471C300.99 219.12 295.841 213.972 289.491 213.972C283.14 213.972 277.992 219.12 277.992 225.471Z" fill="#FF9D66"/>
<path d="M97.8396 225.471C97.8396 261.635 68.5229 290.951 32.359 290.951C-3.80493 290.951 -33.1216 261.635 -33.1216 225.471C-33.1216 189.307 -3.80493 159.99 32.359 159.99C68.5229 159.99 97.8396 189.307 97.8396 225.471ZM-6.92935 225.471C-6.92935 247.169 10.6606 264.759 32.359 264.759C54.0574 264.759 71.6474 247.169 71.6474 225.471C71.6474 203.773 54.0574 186.183 32.359 186.183C10.6606 186.183 -6.92935 203.773 -6.92935 225.471Z" fill="#FFAD47"/>
<path d="M218.37 88.8101C218.37 124.056 246.945 152.629 282.19 152.629C317.435 152.629 346.012 124.056 346.012 88.8101C346.012 53.5642 317.436 24.989 282.19 24.989C246.944 24.989 218.37 53.5638 218.37 88.8101ZM260.688 57.7586L261.073 58.1646C264.037 61.2952 265.519 62.8604 267.132 64.0737C271.788 67.5759 277.559 69.2648 283.369 68.8254C285.381 68.6732 287.473 68.1539 291.657 67.1154L306.794 63.3584C308.165 63.0182 309.613 63.4208 310.612 64.4194V64.4194C312.453 66.2608 312.09 69.3393 309.87 70.7006L287.031 84.7049C286.998 84.7254 286.967 84.7498 286.939 84.7775V84.7775C286.748 84.9686 286.744 85.2771 286.93 85.4734L302.866 102.304V102.304C303.051 102.486 303.276 102.615 303.535 102.627L305.046 102.693C309.116 102.872 311.032 107.803 308.152 110.684L304.047 114.789C301.174 117.662 296.257 115.75 296.079 111.691L296.011 110.16C296 109.9 295.87 109.672 295.686 109.487V109.487L278.629 93.3375C278.558 93.2704 278.447 93.2716 278.377 93.3402V93.3402C278.367 93.3503 278.358 93.3616 278.351 93.3739L264.088 116.506C262.723 118.719 259.651 119.078 257.813 117.24V117.24C256.809 116.236 256.408 114.778 256.758 113.402L260.58 98.3532C261.605 94.3141 262.118 92.2945 262.287 90.3526C262.803 84.4089 261.087 78.4859 257.473 73.7388C256.293 72.1878 254.78 70.7553 251.753 67.8902L251.139 67.3083C248.5 64.67 248.501 60.394 251.139 57.7577C253.776 55.1211 258.051 55.1211 260.688 57.7586Z" fill="#FFAD47"/>
<rect x="33.9561" y="66.5878" width="8.37094" height="33.4838" rx="4.18547" fill="white"/>
<rect x="44.4202" y="89.6072" width="8.37094" height="10.4637" rx="4.18547" fill="#FFAD47"/>
<rect x="54.8843" y="93.7926" width="8.37094" height="6.27821" rx="3.1391" fill="#FF9D66"/>
<rect x="65.3472" y="83.3288" width="8.37094" height="16.7419" rx="4.18547" fill="white"/>
<rect x="75.8113" y="66.5869" width="8.37094" height="33.4838" rx="4.18547" fill="#FF9D66"/>
<rect x="86.2747" y="77.0509" width="8.37094" height="23.0201" rx="4.18547" fill="#FFAD47"/>
<path d="M34.9883 134.812H40.2428V136.869H32.4394V121.329H34.9883V134.812ZM53.2186 130.407C53.2186 130.869 53.1888 131.286 53.1292 131.659H43.716C43.7905 132.643 44.1557 133.433 44.8116 134.029C45.4674 134.625 46.2724 134.924 47.2264 134.924C48.5977 134.924 49.5666 134.35 50.1331 133.202H52.8832C52.5106 134.335 51.8324 135.266 50.8485 135.997C49.8796 136.712 48.6722 137.07 47.2264 137.07C46.0488 137.07 44.9904 136.809 44.0513 136.287C43.1272 135.751 42.3968 135.006 41.8601 134.052C41.3384 133.083 41.0776 131.965 41.0776 130.698C41.0776 129.431 41.331 128.32 41.8378 127.366C42.3595 126.397 43.0824 125.652 44.0066 125.13C44.9457 124.608 46.019 124.348 47.2264 124.348C48.389 124.348 49.425 124.601 50.3343 125.108C51.2436 125.615 51.9516 126.33 52.4584 127.254C52.9652 128.164 53.2186 129.214 53.2186 130.407ZM50.5579 129.602C50.543 128.663 50.2076 127.91 49.5517 127.344C48.8958 126.777 48.0835 126.494 47.1146 126.494C46.2351 126.494 45.4823 126.777 44.8563 127.344C44.2302 127.895 43.8576 128.648 43.7383 129.602H50.5579ZM54.4302 130.653C54.4302 129.416 54.6836 128.32 55.1904 127.366C55.7121 126.412 56.4127 125.674 57.2922 125.153C58.1866 124.616 59.1704 124.348 60.2436 124.348C61.2125 124.348 62.0547 124.541 62.7702 124.929C63.5006 125.302 64.0819 125.771 64.5142 126.338V124.549H67.0855V136.869H64.5142V135.035C64.0819 135.617 63.4932 136.101 62.7478 136.489C62.0025 136.876 61.1529 137.07 60.1989 137.07C59.1406 137.07 58.1717 136.802 57.2922 136.265C56.4127 135.714 55.7121 134.953 55.1904 133.984C54.6836 133.001 54.4302 131.89 54.4302 130.653ZM64.5142 130.698C64.5142 129.848 64.3354 129.11 63.9776 128.484C63.6348 127.858 63.1801 127.381 62.6137 127.053C62.0473 126.725 61.4361 126.561 60.7802 126.561C60.1244 126.561 59.5132 126.725 58.9468 127.053C58.3803 127.366 57.9183 127.836 57.5605 128.462C57.2177 129.073 57.0462 129.803 57.0462 130.653C57.0462 131.503 57.2177 132.248 57.5605 132.889C57.9183 133.53 58.3803 134.022 58.9468 134.365C59.5281 134.692 60.1393 134.856 60.7802 134.856C61.4361 134.856 62.0473 134.692 62.6137 134.365C63.1801 134.037 63.6348 133.56 63.9776 132.934C64.3354 132.293 64.5142 131.547 64.5142 130.698ZM69.1366 130.653C69.1366 129.416 69.39 128.32 69.8969 127.366C70.4186 126.412 71.1192 125.674 71.9986 125.153C72.893 124.616 73.8843 124.348 74.9724 124.348C75.7773 124.348 76.5674 124.526 77.3425 124.884C78.1325 125.227 78.7586 125.689 79.2207 126.271V120.323H81.792V136.869H79.2207V135.013C78.8033 135.609 78.2219 136.101 77.4766 136.489C76.7462 136.876 75.904 137.07 74.95 137.07C73.8768 137.07 72.893 136.802 71.9986 136.265C71.1192 135.714 70.4186 134.953 69.8969 133.984C69.39 133.001 69.1366 131.89 69.1366 130.653ZM79.2207 130.698C79.2207 129.848 79.0418 129.11 78.684 128.484C78.3412 127.858 77.8866 127.381 77.3201 127.053C76.7537 126.725 76.1425 126.561 75.4867 126.561C74.8308 126.561 74.2196 126.725 73.6532 127.053C73.0868 127.366 72.6247 127.836 72.2669 128.462C71.9241 129.073 71.7527 129.803 71.7527 130.653C71.7527 131.503 71.9241 132.248 72.2669 132.889C72.6247 133.53 73.0868 134.022 73.6532 134.365C74.2345 134.692 74.8457 134.856 75.4867 134.856C76.1425 134.856 76.7537 134.692 77.3201 134.365C77.8866 134.037 78.3412 133.56 78.684 132.934C79.0418 132.293 79.2207 131.547 79.2207 130.698ZM95.9841 130.407C95.9841 130.869 95.9543 131.286 95.8947 131.659H86.4815C86.556 132.643 86.9212 133.433 87.5771 134.029C88.2329 134.625 89.0379 134.924 89.9919 134.924C91.3632 134.924 92.3321 134.35 92.8986 133.202H95.6487C95.2761 134.335 94.5979 135.266 93.6141 135.997C92.6452 136.712 91.4378 137.07 89.9919 137.07C88.8143 137.07 87.7559 136.809 86.8169 136.287C85.8927 135.751 85.1623 135.006 84.6256 134.052C84.1039 133.083 83.8431 131.965 83.8431 130.698C83.8431 129.431 84.0965 128.32 84.6033 127.366C85.125 126.397 85.848 125.652 86.7721 125.13C87.7112 124.608 88.7845 124.348 89.9919 124.348C91.1545 124.348 92.1905 124.601 93.0998 125.108C94.0091 125.615 94.7171 126.33 95.2239 127.254C95.7307 128.164 95.9841 129.214 95.9841 130.407ZM93.3234 129.602C93.3085 128.663 92.9731 127.91 92.3172 127.344C91.6614 126.777 90.849 126.494 89.8801 126.494C89.0006 126.494 88.2478 126.777 87.6218 127.344C86.9957 127.895 86.6231 128.648 86.5038 129.602H93.3234ZM100.594 126.338C100.967 125.712 101.459 125.227 102.07 124.884C102.696 124.526 103.434 124.348 104.284 124.348V126.986H103.635C102.636 126.986 101.876 127.239 101.355 127.746C100.848 128.253 100.594 129.132 100.594 130.385V136.869H98.0454V124.549H100.594V126.338ZM108.728 126.382C109.161 125.786 109.749 125.302 110.495 124.929C111.255 124.541 112.097 124.348 113.021 124.348C114.109 124.348 115.093 124.608 115.973 125.13C116.852 125.652 117.545 126.397 118.052 127.366C118.559 128.32 118.812 129.416 118.812 130.653C118.812 131.89 118.559 133.001 118.052 133.984C117.545 134.953 116.845 135.714 115.95 136.265C115.071 136.802 114.095 137.07 113.021 137.07C112.067 137.07 111.218 136.884 110.472 136.511C109.742 136.138 109.161 135.661 108.728 135.08V136.869H106.179V120.323H108.728V126.382ZM116.219 130.653C116.219 129.803 116.04 129.073 115.682 128.462C115.339 127.836 114.877 127.366 114.296 127.053C113.729 126.725 113.118 126.561 112.462 126.561C111.821 126.561 111.21 126.725 110.629 127.053C110.062 127.381 109.6 127.858 109.243 128.484C108.9 129.11 108.728 129.848 108.728 130.698C108.728 131.547 108.9 132.293 109.243 132.934C109.6 133.56 110.062 134.037 110.629 134.365C111.21 134.692 111.821 134.856 112.462 134.856C113.118 134.856 113.729 134.692 114.296 134.365C114.877 134.022 115.339 133.53 115.682 132.889C116.04 132.248 116.219 131.503 116.219 130.653ZM126.23 137.07C125.067 137.07 124.016 136.809 123.077 136.287C122.138 135.751 121.4 135.006 120.863 134.052C120.327 133.083 120.059 131.965 120.059 130.698C120.059 129.446 120.334 128.335 120.886 127.366C121.437 126.397 122.19 125.652 123.144 125.13C124.098 124.608 125.164 124.348 126.341 124.348C127.519 124.348 128.585 124.608 129.539 125.13C130.493 125.652 131.246 126.397 131.797 127.366C132.349 128.335 132.624 129.446 132.624 130.698C132.624 131.95 132.341 133.06 131.775 134.029C131.208 134.998 130.433 135.751 129.449 136.287C128.481 136.809 127.407 137.07 126.23 137.07ZM126.23 134.856C126.886 134.856 127.497 134.7 128.063 134.387C128.644 134.074 129.114 133.604 129.472 132.978C129.83 132.352 130.008 131.592 130.008 130.698C130.008 129.803 129.837 129.05 129.494 128.439C129.151 127.813 128.697 127.344 128.13 127.031C127.564 126.718 126.953 126.561 126.297 126.561C125.641 126.561 125.03 126.718 124.463 127.031C123.912 127.344 123.472 127.813 123.144 128.439C122.816 129.05 122.652 129.803 122.652 130.698C122.652 132.024 122.988 133.053 123.658 133.783C124.344 134.499 125.201 134.856 126.23 134.856ZM133.847 130.653C133.847 129.416 134.101 128.32 134.608 127.366C135.129 126.412 135.83 125.674 136.709 125.153C137.604 124.616 138.588 124.348 139.661 124.348C140.63 124.348 141.472 124.541 142.187 124.929C142.918 125.302 143.499 125.771 143.931 126.338V124.549H146.503V136.869H143.931V135.035C143.499 135.617 142.91 136.101 142.165 136.489C141.42 136.876 140.57 137.07 139.616 137.07C138.558 137.07 137.589 136.802 136.709 136.265C135.83 135.714 135.129 134.953 134.608 133.984C134.101 133.001 133.847 131.89 133.847 130.653ZM143.931 130.698C143.931 129.848 143.753 129.11 143.395 128.484C143.052 127.858 142.597 127.381 142.031 127.053C141.464 126.725 140.853 126.561 140.197 126.561C139.542 126.561 138.93 126.725 138.364 127.053C137.798 127.366 137.335 127.836 136.978 128.462C136.635 129.073 136.463 129.803 136.463 130.653C136.463 131.503 136.635 132.248 136.978 132.889C137.335 133.53 137.798 134.022 138.364 134.365C138.945 134.692 139.556 134.856 140.197 134.856C140.853 134.856 141.464 134.692 142.031 134.365C142.597 134.037 143.052 133.56 143.395 132.934C143.753 132.293 143.931 131.547 143.931 130.698ZM151.952 126.338C152.325 125.712 152.817 125.227 153.428 124.884C154.054 124.526 154.792 124.348 155.642 124.348V126.986H154.993C153.995 126.986 153.234 127.239 152.713 127.746C152.206 128.253 151.952 129.132 151.952 130.385V136.869H149.403V124.549H151.952V126.338ZM156.688 130.653C156.688 129.416 156.941 128.32 157.448 127.366C157.97 126.412 158.67 125.674 159.55 125.153C160.444 124.616 161.435 124.348 162.524 124.348C163.329 124.348 164.119 124.526 164.894 124.884C165.684 125.227 166.31 125.689 166.772 126.271V120.323H169.343V136.869H166.772V135.013C166.354 135.609 165.773 136.101 165.028 136.489C164.297 136.876 163.455 137.07 162.501 137.07C161.428 137.07 160.444 136.802 159.55 136.265C158.67 135.714 157.97 134.953 157.448 133.984C156.941 133.001 156.688 131.89 156.688 130.653ZM166.772 130.698C166.772 129.848 166.593 129.11 166.235 128.484C165.892 127.858 165.438 127.381 164.871 127.053C164.305 126.725 163.694 126.561 163.038 126.561C162.382 126.561 161.771 126.725 161.204 127.053C160.638 127.366 160.176 127.836 159.818 128.462C159.475 129.073 159.304 129.803 159.304 130.653C159.304 131.503 159.475 132.248 159.818 132.889C160.176 133.53 160.638 134.022 161.204 134.365C161.786 134.692 162.397 134.856 163.038 134.856C163.694 134.856 164.305 134.692 164.871 134.365C165.438 134.037 165.892 133.56 166.235 132.934C166.593 132.293 166.772 131.547 166.772 130.698Z" fill="white"/>
</g>
</svg>
