<svg width="21" height="21" viewBox="0 0 21 21" fill="none" xmlns="http://www.w3.org/2000/svg">
<path d="M20.7101 19.29L17.0001 15.61C18.4402 13.8144 19.1376 11.5353 18.949 9.24133C18.7603 6.94733 17.6998 4.81281 15.9857 3.27667C14.2715 1.74053 12.034 0.919537 9.73307 0.982497C7.43219 1.04546 5.24287 1.98759 3.61529 3.61517C1.98771 5.24275 1.04558 7.43207 0.982619 9.73295C0.919659 12.0338 1.74065 14.2714 3.27679 15.9855C4.81293 17.6997 6.94745 18.7601 9.24145 18.9488C11.5354 19.1375 13.8146 18.4401 15.6101 17L19.2901 20.68C19.3831 20.7738 19.4937 20.8482 19.6156 20.8989C19.7374 20.9497 19.8681 20.9758 20.0001 20.9758C20.1322 20.9758 20.2629 20.9497 20.3847 20.8989C20.5066 20.8482 20.6172 20.7738 20.7101 20.68C20.8904 20.4936 20.9911 20.2444 20.9911 19.985C20.9911 19.7257 20.8904 19.4765 20.7101 19.29ZM10.0001 17C8.61568 17 7.2623 16.5895 6.11116 15.8203C4.96001 15.0511 4.0628 13.9579 3.53299 12.6788C3.00318 11.3997 2.86455 9.99226 3.13465 8.6344C3.40475 7.27653 4.07143 6.02925 5.0504 5.05028C6.02937 4.07131 7.27665 3.40463 8.63452 3.13453C9.99238 2.86443 11.3998 3.00306 12.6789 3.53287C13.958 4.06268 15.0513 4.95989 15.8204 6.11104C16.5896 7.26218 17.0001 8.61556 17.0001 10C17.0001 11.8565 16.2626 13.637 14.9499 14.9498C13.6371 16.2625 11.8567 17 10.0001 17Z" fill="#212523"/>
</svg>
